<svg width="16" height="16" viewBox="0 0 16 16" fill="none" xmlns="http://www.w3.org/2000/svg">
<path d="M16 11.4131L12.1443 12.3455L8.52925 11.6211L4.828 12.3455L1 11.4087V10.9091C1 10.3304 1.23705 9.77548 1.65901 9.36631C2.08097 8.95714 2.65326 8.72727 3.25 8.72727H13.75C14.3467 8.72727 14.919 8.95714 15.341 9.36631C15.7629 9.77548 16 10.3304 16 10.9091V11.4131ZM16 12.9135V16H1V12.9091L4.79275 13.8364L8.52625 13.1062L12.1705 13.8364L16 12.9135ZM6.25 6.54545H10.75V8H6.25V6.54545ZM8.5 6.10909C7.90326 6.10909 7.33097 5.87922 6.90901 5.47005C6.48705 5.06088 6.25 4.50593 6.25 3.92727C6.25 3.12339 7 1.8143 8.5 0C10 1.8143 10.75 3.12339 10.75 3.92727C10.75 4.50593 10.5129 5.06088 10.091 5.47005C9.66903 5.87922 9.09674 6.10909 8.5 6.10909Z" fill="#4C6ED7"/>
</svg>
