<svg width="164" height="165" viewBox="0 0 164 165" fill="none" xmlns="http://www.w3.org/2000/svg">
<ellipse cx="82" cy="124" rx="82" ry="41" fill="#D9D9D9"/>
<path d="M24 20H144V49.2333H130.667V33.3333H37.3333V93.3333H66.22V106.667H24V20Z" fill="#757575"/>
<path d="M88.5598 68.58C94.3865 74.7467 99.3531 80 110.666 80H124C127.536 80 130.927 81.4048 133.428 83.9053C135.928 86.4058 137.333 89.7972 137.333 93.3334V100C137.333 102.34 136.717 104.64 135.547 106.667C134.376 108.693 132.693 110.376 130.666 111.547V146.667H110.666V93.3334C93.2198 93.3334 84.2931 83.6667 78.3998 77.3C77.6008 76.4223 76.7851 75.56 75.9531 74.7134L85.3798 65.2867C86.4865 66.3978 87.5465 67.4956 88.5598 68.58ZM130.666 63.3334C130.666 65.9855 129.613 68.5291 127.738 70.4044C125.862 72.2798 123.319 73.3334 120.666 73.3334C118.014 73.3334 115.471 72.2798 113.595 70.4044C111.72 68.5291 110.666 65.9855 110.666 63.3334C110.666 60.6812 111.72 58.1377 113.595 56.2623C115.471 54.3869 118.014 53.3334 120.666 53.3334C123.319 53.3334 125.862 54.3869 127.738 56.2623C129.613 58.1377 130.666 60.6812 130.666 63.3334Z" fill="#757575"/>
</svg>
