<svg width="27" height="25" viewBox="0 0 27 25" fill="none" xmlns="http://www.w3.org/2000/svg">
<path fill-rule="evenodd" clip-rule="evenodd" d="M26.3254 12.7366C26.3254 11.7842 26.2399 10.8684 26.0812 9.98926H13.4313V15.1847H20.6598C20.3484 16.8637 19.4021 18.2862 17.9796 19.2386V22.6086H22.3204C24.8601 20.2703 26.3254 16.827 26.3254 12.7366Z" fill="#4285F4"/>
<path fill-rule="evenodd" clip-rule="evenodd" d="M13.4313 25.8627C17.0578 25.8627 20.0982 24.6599 22.3205 22.6086L17.9797 19.2386C16.777 20.0444 15.2385 20.5206 13.4313 20.5206C9.9331 20.5206 6.9721 18.158 5.91591 14.9833H1.42862V18.4632C3.63868 22.8528 8.18092 25.8627 13.4313 25.8627Z" fill="#34A853"/>
<path fill-rule="evenodd" clip-rule="evenodd" d="M5.91589 14.9833C5.64727 14.1774 5.49464 13.3166 5.49464 12.4313C5.49464 11.5461 5.64727 10.6852 5.91589 9.87935V6.39941H1.42861C0.518938 8.21264 0 10.264 0 12.4313C0 14.5986 0.518938 16.65 1.42861 18.4632L5.91589 14.9833Z" fill="#FBBC05"/>
<path fill-rule="evenodd" clip-rule="evenodd" d="M13.4313 4.34201C15.4033 4.34201 17.1738 5.01968 18.5658 6.3506L22.4181 2.49825C20.0921 0.330923 17.0517 -1 13.4313 -1C8.18092 -1 3.63868 2.00984 1.42862 6.39945L5.91591 9.87938C6.9721 6.7047 9.9331 4.34201 13.4313 4.34201Z" fill="#EA4335"/>
</svg>
