<svg width="47" height="46" viewBox="0 0 47 46" fill="none" xmlns="http://www.w3.org/2000/svg">
<path d="M10.0833 5.75H34.9999C36.5249 5.75 37.9874 6.3558 39.0658 7.43414C40.1441 8.51247 40.7499 9.97501 40.7499 11.5V36.4167C40.7499 37.9417 40.1441 39.4042 39.0658 40.4825C37.9874 41.5609 36.5249 42.1667 34.9999 42.1667H10.0833C8.55826 42.1667 7.09572 41.5609 6.01739 40.4825C4.93905 39.4042 4.33325 37.9417 4.33325 36.4167V11.5C4.33325 9.97501 4.93905 8.51247 6.01739 7.43414C7.09572 6.3558 8.55826 5.75 10.0833 5.75ZM10.0833 7.66667C9.06659 7.66667 8.09157 8.07053 7.37268 8.78942C6.65379 9.50831 6.24992 10.4833 6.24992 11.5V33.7142L14.4724 25.4725L19.2641 30.2642L28.8474 20.6808L38.8333 30.6667V11.5C38.8333 10.4833 38.4294 9.50831 37.7105 8.78942C36.9916 8.07053 36.0166 7.66667 34.9999 7.66667H10.0833ZM19.2641 32.9858L14.4724 28.1942L6.24992 36.4167C6.24992 37.4333 6.65379 38.4084 7.37268 39.1272C8.09157 39.8461 9.06659 40.25 10.0833 40.25H34.9999C36.0166 40.25 36.9916 39.8461 37.7105 39.1272C38.4294 38.4084 38.8333 37.4333 38.8333 36.4167V33.3692L28.8474 23.4025L19.2641 32.9858ZM14.8749 11.5C16.1457 11.5 17.3645 12.0048 18.2631 12.9034C19.1618 13.8021 19.6666 15.0208 19.6666 16.2917C19.6666 17.5625 19.1618 18.7813 18.2631 19.6799C17.3645 20.5785 16.1457 21.0833 14.8749 21.0833C13.6041 21.0833 12.3853 20.5785 11.4867 19.6799C10.5881 18.7813 10.0833 17.5625 10.0833 16.2917C10.0833 15.0208 10.5881 13.8021 11.4867 12.9034C12.3853 12.0048 13.6041 11.5 14.8749 11.5ZM14.8749 13.4167C14.1124 13.4167 13.3812 13.7196 12.842 14.2587C12.3028 14.7979 11.9999 15.5292 11.9999 16.2917C11.9999 17.0542 12.3028 17.7854 12.842 18.3246C13.3812 18.8638 14.1124 19.1667 14.8749 19.1667C15.6374 19.1667 16.3687 18.8638 16.9079 18.3246C17.447 17.7854 17.7499 17.0542 17.7499 16.2917C17.7499 15.5292 17.447 14.7979 16.9079 14.2587C16.3687 13.7196 15.6374 13.4167 14.8749 13.4167Z" fill="#B3B3B3"/>
</svg>
