<svg width="12" height="12" viewBox="0 0 12 12" fill="none" xmlns="http://www.w3.org/2000/svg">
<path d="M10 8.5C10.2652 8.5 10.5196 8.39464 10.7071 8.20711C10.8946 8.01957 11 7.76522 11 7.5V2C11 1.73478 10.8946 1.48043 10.7071 1.29289C10.5196 1.10536 10.2652 1 10 1H4.73C4.905 1.305 5 1.65 5 2H10V7.5H5.5V8.5M7.5 3.5V4.5H4.5V11H3.5V8H2.5V11H1.5V7H0.75V4.5C0.75 4.23478 0.855357 3.98043 1.04289 3.79289C1.23043 3.60536 1.48478 3.5 1.75 3.5H7.5ZM4 2C4 2.26522 3.89464 2.51957 3.70711 2.70711C3.51957 2.89464 3.26522 3 3 3C2.73478 3 2.48043 2.89464 2.29289 2.70711C2.10536 2.51957 2 2.26522 2 2C2 1.73478 2.10536 1.48043 2.29289 1.29289C2.48043 1.10536 2.73478 1 3 1C3.26522 1 3.51957 1.10536 3.70711 1.29289C3.89464 1.48043 4 1.73478 4 2Z" fill="#4F4F4F"/>
</svg>
