<svg width="16" height="16" viewBox="0 0 16 16" fill="none" xmlns="http://www.w3.org/2000/svg">
<path d="M10.3333 0.666748H4.99992C4.55789 0.666748 4.13397 0.842343 3.82141 1.1549C3.50885 1.46746 3.33325 1.89139 3.33325 2.33341V13.6667C3.33325 14.1088 3.50885 14.5327 3.82141 14.8453C4.13397 15.1578 4.55789 15.3334 4.99992 15.3334H10.3333C10.7753 15.3334 11.1992 15.1578 11.5118 14.8453C11.8243 14.5327 11.9999 14.1088 11.9999 13.6667V2.33341C11.9999 1.89139 11.8243 1.46746 11.5118 1.1549C11.1992 0.842343 10.7753 0.666748 10.3333 0.666748ZM7.66659 14.6667C7.11325 14.6667 6.66659 14.2201 6.66659 13.6667C6.66659 13.1134 7.11325 12.6667 7.66659 12.6667C8.21992 12.6667 8.66659 13.1134 8.66659 13.6667C8.66659 14.2201 8.21992 14.6667 7.66659 14.6667ZM10.6666 12.0001H4.66659V2.66675H10.6666V12.0001Z" fill="#4C6ED7"/>
</svg>
