<svg width="16" height="16" viewBox="0 0 16 16" fill="none" xmlns="http://www.w3.org/2000/svg">
<g clip-path="url(#clip0_2_649)">
<path d="M8.00001 1.39136C6.90927 1.39136 6.05712 1.77542 5.44358 2.54353C4.83004 3.31165 4.52326 4.29353 4.52326 5.48918C4.51569 6.97469 5.01561 8.15223 6.02304 9.02179C6.1518 9.13773 6.19725 9.28629 6.15938 9.46745L5.89806 9.98918C5.81473 10.1631 5.69165 10.299 5.52879 10.3968C5.36594 10.4946 5.02319 10.6341 4.50054 10.8153C4.47782 10.8225 3.99872 10.9711 3.06326 11.2609C2.12779 11.5508 1.62976 11.7102 1.56917 11.7392C0.932898 11.9928 0.516294 12.2573 0.319354 12.5327C0.107265 12.9892 0.0012207 14.145 0.0012207 16.0001H15.9988C15.9988 14.145 15.8928 12.9892 15.6807 12.5327C15.4837 12.2573 15.0671 11.9928 14.4309 11.7392C14.3703 11.7102 13.8722 11.5508 12.9368 11.2609C12.0013 10.9711 11.5222 10.8225 11.4995 10.8153C10.9768 10.6341 10.6341 10.4946 10.4712 10.3968C10.3084 10.299 10.1853 10.1631 10.102 9.98918L9.84064 9.46745C9.80277 9.28629 9.84822 9.13773 9.97698 9.02179C10.9844 8.15223 11.4843 6.97469 11.4768 5.48918C11.4768 4.29353 11.17 3.31165 10.5564 2.54353C9.9429 1.77542 9.09075 1.39136 8.00001 1.39136Z" fill="#4C6ED7"/>
</g>
<defs>
<clipPath id="clip0_2_649">
<rect width="16" height="16" fill="white"/>
</clipPath>
</defs>
</svg>
